<svg width="217" height="304" viewBox="0 0 217 304" fill="none" xmlns="http://www.w3.org/2000/svg">
<path opacity="0.42" d="M82.4762 280.739C80.8887 282.478 83.4913 284.899 85.7159 285.742C100.231 291.299 115.639 294.156 131.181 294.17L128.535 298.676C152.895 305.444 178.62 305.579 203.049 299.065L199.291 293.23L221.116 292.149C224.583 291.987 236.743 293.414 239.043 290.334C245.663 281.463 218.719 281.117 215.825 280.998C187.077 279.795 158.312 279.33 129.528 279.604C121.681 279.676 113.833 279.802 105.986 279.982C102.271 280.112 84.7872 278.275 82.4762 280.739Z" fill="#C0C2E3"/>
<path d="M205.177 200.787C204.594 212.313 203.899 223.861 203.093 235.43C202.853 241.278 202.094 247.093 200.825 252.806C199.973 256.202 198.772 259.501 197.239 262.65C196.581 264 195.641 265.47 194.162 265.621C192.293 265.816 190.998 263.817 190.328 262.055C186.991 253.411 186.991 243.945 186.775 234.695C186.653 229.912 186.462 225.125 186.203 220.335C185.89 214.554 185.263 208.297 181.354 204.018C180.166 202.721 178.719 201.662 177.553 200.333C172.79 194.93 174.216 185.821 179.345 180.732C183.33 176.788 194.896 171.579 200.479 174.843C207.11 178.711 205.49 194.552 205.177 200.787Z" fill="#06092B"/>
<path d="M171.742 181.002C173.412 183.65 174.195 186.761 173.978 189.884C173.708 199.274 168.135 207.584 165.338 216.563C161.148 230.125 163.481 244.658 163.902 258.889C164.097 260.849 163.854 262.827 163.189 264.681C162.837 265.6 162.213 266.39 161.401 266.946C160.589 267.502 159.627 267.797 158.643 267.793C157.218 267.528 155.935 266.762 155.025 265.632C148.157 258.284 148.384 247.079 147.25 237.094C145.976 225.975 142.531 215.234 139.593 204.439C138.265 199.566 137.023 194.574 137.336 189.538C137.649 184.503 139.766 179.327 143.924 176.474C151.472 171.309 166.354 173.276 171.742 181.002Z" fill="#06092B"/>
<path opacity="0.52" d="M48.0483 165.366L281.776 165.366C284.537 165.366 286.776 163.127 286.776 160.366V158.674C286.776 155.913 284.537 153.674 281.776 153.674L48.0483 153.674C45.2868 153.674 43.0483 155.913 43.0483 158.674V160.366C43.0483 163.127 45.2868 165.366 48.0483 165.366Z" fill="#525369"/>
<path d="M90.6188 138.633L250.047 138.633C257.538 138.633 263.611 132.556 263.611 125.061V14.3997C263.611 6.90407 257.538 0.827698 250.047 0.827698L90.6188 0.827698C83.1277 0.827698 77.055 6.90407 77.055 14.3997L77.055 125.061C77.055 132.556 83.1277 138.633 90.6188 138.633Z" fill="#3CD3C1"/>
<path d="M90.6188 138.633L250.047 138.633C257.538 138.633 263.611 132.556 263.611 125.061V14.3997C263.611 6.90407 257.538 0.827698 250.047 0.827698L90.6188 0.827698C83.1277 0.827698 77.055 6.90407 77.055 14.3997L77.055 125.061C77.055 132.556 83.1277 138.633 90.6188 138.633Z" fill="#3CD3C1"/>
<path d="M135.829 22.4066H101.359C100.604 22.4066 99.9924 23.0185 99.9924 23.7735C99.9924 24.5284 100.604 25.1404 101.359 25.1404H135.829C136.584 25.1404 137.196 24.5284 137.196 23.7735C137.196 23.0185 136.584 22.4066 135.829 22.4066Z" fill="#FAFAFA"/>
<path d="M121.423 27.6906H101.273C100.566 27.6906 99.9925 28.2639 99.9925 28.9711C99.9925 29.6783 100.566 30.2516 101.273 30.2516H121.423C122.13 30.2516 122.703 29.6783 122.703 28.9711C122.703 28.2639 122.13 27.6906 121.423 27.6906Z" fill="#FAFAFA"/>
<path d="M202.028 27.6906H133.152C132.439 27.6906 131.861 28.2687 131.861 28.9819C131.861 29.695 132.439 30.2732 133.152 30.2732H202.028C202.741 30.2732 203.319 29.695 203.319 28.9819C203.319 28.2687 202.741 27.6906 202.028 27.6906Z" fill="#FAFAFA"/>
<path d="M248.929 27.6906H211.295C210.582 27.6906 210.004 28.2687 210.004 28.9819C210.004 29.695 210.582 30.2732 211.295 30.2732H248.929C249.642 30.2732 250.22 29.695 250.22 28.9819C250.22 28.2687 249.642 27.6906 248.929 27.6906Z" fill="#FAFAFA"/>
<path d="M141.677 32.9962H113.157C112.411 32.9962 111.807 33.601 111.807 34.3469C111.807 35.0929 112.411 35.6976 113.157 35.6976H141.677C142.423 35.6976 143.027 35.0929 143.027 34.3469C143.027 33.601 142.423 32.9962 141.677 32.9962Z" fill="#FAFAFA"/>
<path d="M157.665 38.2693H123.195C122.44 38.2693 121.828 38.8813 121.828 39.6363C121.828 40.3912 122.44 41.0032 123.195 41.0032H157.665C158.42 41.0032 159.032 40.3912 159.032 39.6363C159.032 38.8813 158.42 38.2693 157.665 38.2693Z" fill="#FAFAFA"/>
<path d="M191.131 38.2693H162.98C162.141 38.2693 161.462 38.9491 161.462 39.7875C161.462 40.626 162.141 41.3057 162.98 41.3057H191.131C191.97 41.3057 192.65 40.626 192.65 39.7875C192.65 38.9491 191.97 38.2693 191.131 38.2693Z" fill="#FAFAFA"/>
<path d="M149.22 43.5533H123.055C122.348 43.5533 121.774 44.1266 121.774 44.8338C121.774 45.541 122.348 46.1143 123.055 46.1143H149.22C149.927 46.1143 150.5 45.541 150.5 44.8338C150.5 44.1266 149.927 43.5533 149.22 43.5533Z" fill="#FAFAFA"/>
<path d="M211.121 43.5533H154.675C153.89 43.5533 153.254 44.1895 153.254 44.9742C153.254 45.759 153.89 46.3952 154.675 46.3952H211.121C211.906 46.3952 212.542 45.759 212.542 44.9742C212.542 44.1895 211.906 43.5533 211.121 43.5533Z" fill="#FAFAFA"/>
<path d="M135.829 50.7069H101.359C100.604 50.7069 99.9925 51.3189 99.9925 52.0738C99.9925 52.8287 100.604 53.4407 101.359 53.4407H135.829C136.584 53.4407 137.196 52.8287 137.196 52.0738C137.196 51.3189 136.584 50.7069 135.829 50.7069Z" fill="#FAFAFA"/>
<path d="M121.423 55.9906H101.273C100.566 55.9906 99.9925 56.5639 99.9925 57.2711C99.9925 57.9783 100.566 58.5515 101.273 58.5515H121.423C122.13 58.5515 122.703 57.9783 122.703 57.2711C122.703 56.5639 122.13 55.9906 121.423 55.9906Z" fill="#FAFAFA"/>
<path d="M202.028 55.9906H133.152C132.439 55.9906 131.861 56.5687 131.861 57.2819C131.861 57.995 132.439 58.5732 133.152 58.5732H202.028C202.741 58.5732 203.319 57.995 203.319 57.2819C203.319 56.5687 202.741 55.9906 202.028 55.9906Z" fill="#FAFAFA"/>
<path d="M248.929 55.9906H211.295C210.582 55.9906 210.004 56.5687 210.004 57.2819C210.004 57.995 210.582 58.5732 211.295 58.5732H248.929C249.642 58.5732 250.22 57.995 250.22 57.2819C250.22 56.5687 249.642 55.9906 248.929 55.9906Z" fill="#FAFAFA"/>
<path d="M141.677 61.2747H113.157C112.411 61.2747 111.807 61.8795 111.807 62.6254C111.807 63.3714 112.411 63.9761 113.157 63.9761H141.677C142.423 63.9761 143.027 63.3714 143.027 62.6254C143.027 61.8795 142.423 61.2747 141.677 61.2747Z" fill="#FAFAFA"/>
<path d="M157.665 66.5695H123.195C122.44 66.5695 121.828 67.1815 121.828 67.9364C121.828 68.6914 122.44 69.3034 123.195 69.3034H157.665C158.42 69.3034 159.032 68.6914 159.032 67.9364C159.032 67.1815 158.42 66.5695 157.665 66.5695Z" fill="#FAFAFA"/>
<path d="M191.131 66.5695H162.98C162.141 66.5695 161.462 67.2492 161.462 68.0877C161.462 68.9262 162.141 69.6059 162.98 69.6059H191.131C191.97 69.6059 192.65 68.9262 192.65 68.0877C192.65 67.2492 191.97 66.5695 191.131 66.5695Z" fill="#FAFAFA"/>
<path d="M149.22 71.8535H123.055C122.348 71.8535 121.774 72.4267 121.774 73.1339C121.774 73.8411 122.348 74.4144 123.055 74.4144H149.22C149.927 74.4144 150.5 73.8411 150.5 73.1339C150.5 72.4267 149.927 71.8535 149.22 71.8535Z" fill="#FAFAFA"/>
<path d="M211.121 71.8535H154.675C153.89 71.8535 153.254 72.4896 153.254 73.2744C153.254 74.0592 153.89 74.6954 154.675 74.6954H211.121C211.906 74.6954 212.542 74.0592 212.542 73.2744C212.542 72.4896 211.906 71.8535 211.121 71.8535Z" fill="#FAFAFA"/>
<path d="M135.829 78.996H101.359C100.604 78.996 99.9925 79.608 99.9925 80.363C99.9925 81.1179 100.604 81.7299 101.359 81.7299H135.829C136.584 81.7299 137.196 81.1179 137.196 80.363C137.196 79.608 136.584 78.996 135.829 78.996Z" fill="#FAFAFA"/>
<path d="M121.423 84.2801H101.273C100.566 84.2801 99.9925 84.8534 99.9925 85.5606C99.9925 86.2677 100.566 86.841 101.273 86.841H121.423C122.13 86.841 122.703 86.2677 122.703 85.5606C122.703 84.8534 122.13 84.2801 121.423 84.2801Z" fill="#FAFAFA"/>
<path d="M202.028 84.2801H133.152C132.439 84.2801 131.861 84.8582 131.861 85.5714C131.861 86.2845 132.439 86.8626 133.152 86.8626H202.028C202.741 86.8626 203.319 86.2845 203.319 85.5714C203.319 84.8582 202.741 84.2801 202.028 84.2801Z" fill="#FAFAFA"/>
<path d="M248.929 84.2801H211.295C210.582 84.2801 210.004 84.8582 210.004 85.5714C210.004 86.2845 210.582 86.8626 211.295 86.8626H248.929C249.642 86.8626 250.22 86.2845 250.22 85.5714C250.22 84.8582 249.642 84.2801 248.929 84.2801Z" fill="#FAFAFA"/>
<path d="M141.677 89.564H113.157C112.412 89.564 111.807 90.1688 111.807 90.9148C111.807 91.6607 112.412 92.2655 113.157 92.2655H141.677C142.423 92.2655 143.027 91.6607 143.027 90.9148C143.027 90.1688 142.423 89.564 141.677 89.564Z" fill="#FAFAFA"/>
<path d="M157.665 94.848H123.195C122.44 94.848 121.828 95.46 121.828 96.2149C121.828 96.9699 122.44 97.5818 123.195 97.5818H157.665C158.42 97.5818 159.032 96.9699 159.032 96.2149C159.032 95.46 158.42 94.848 157.665 94.848Z" fill="#FAFAFA"/>
<path d="M191.131 94.848H162.98C162.141 94.848 161.462 95.5277 161.462 96.3662C161.462 97.2047 162.141 97.8844 162.98 97.8844H191.131C191.97 97.8844 192.65 97.2047 192.65 96.3662C192.65 95.5277 191.97 94.848 191.131 94.848Z" fill="#FAFAFA"/>
<path d="M149.22 100.143H123.055C122.348 100.143 121.774 100.716 121.774 101.423C121.774 102.13 122.348 102.704 123.055 102.704H149.22C149.927 102.704 150.5 102.13 150.5 101.423C150.5 100.716 149.927 100.143 149.22 100.143Z" fill="#FAFAFA"/>
<path d="M211.121 100.143H154.675C153.89 100.143 153.254 100.779 153.254 101.564C153.254 102.348 153.89 102.985 154.675 102.985H211.121C211.906 102.985 212.542 102.348 212.542 101.564C212.542 100.779 211.906 100.143 211.121 100.143Z" fill="#FAFAFA"/>
<path d="M215.231 146.099C215.997 148.261 216.721 150.53 216.246 152.756C216.074 153.526 215.763 154.258 215.328 154.917C213.168 158.267 208.049 158.785 204.529 156.775C201.008 154.766 199.021 150.919 198.049 147.05C197.666 145.755 197.538 144.397 197.671 143.052C197.984 140.707 199.539 138.73 201.159 137.001C203.319 134.753 207.282 131.814 210.187 134.516C212.801 136.936 214.075 142.869 215.231 146.099Z" fill="#F8C0DD"/>
<path d="M126.904 145.451C126.431 146.344 126.211 147.349 126.267 148.358C126.398 149.007 126.655 149.623 127.023 150.173C127.931 151.805 129.145 153.247 130.597 154.42C132.063 155.595 133.919 156.171 135.792 156.03C138.556 155.727 140.749 153.534 142.217 151.167C143.744 148.919 144.547 146.257 144.518 143.539C144.433 142.106 144.033 140.711 143.346 139.452C142.659 138.193 141.702 137.101 140.544 136.256C138.459 134.743 134.118 133.37 131.764 135.099C129.41 136.828 128.081 142.663 126.904 145.451Z" fill="#F8C0DD"/>
<path d="M190.684 66.0833C191.068 65.9722 191.472 65.9505 191.865 66.0198C192.258 66.0891 192.63 66.2476 192.952 66.4831C193.403 66.9967 193.665 67.6482 193.697 68.3308C193.973 69.7074 194.027 71.1189 193.859 72.5126C193.679 73.898 192.999 75.1697 191.948 76.0893C191.129 76.6923 190.207 77.1392 189.226 77.4076C188.49 77.7418 187.653 77.7728 186.894 77.4941C186.563 77.2687 186.287 76.9723 186.085 76.6265C185.883 76.2806 185.761 75.8941 185.728 75.495C184.874 71.3132 186.181 66.9045 190.684 66.0833Z" fill="#F8C0DD"/>
<path d="M151.364 64.6352C150.935 64.5272 150.487 64.5272 150.058 64.6352C149.589 64.856 149.194 65.2063 148.918 65.6449C148.643 66.0834 148.499 66.5917 148.503 67.1097C148.433 68.1259 148.498 69.147 148.697 70.1461C148.883 71.8184 149.568 73.396 150.662 74.6737C151.213 75.2884 151.955 75.6995 152.768 75.8407C153.581 75.9818 154.418 75.8448 155.144 75.4517C159.734 72.2748 155.414 65.5212 151.364 64.6352Z" fill="#F8C0DD"/>
<path d="M180.436 94.8371C180.649 95.816 180.707 96.8224 180.609 97.8194C180.209 100.586 177.455 102.52 174.691 102.866C171.926 103.211 169.162 102.282 166.581 101.256C165.788 100.988 165.054 100.57 164.421 100.024C163.788 99.3623 163.357 98.5338 163.179 97.6357C162.869 96.0784 162.775 94.4859 162.898 92.9028L163.071 87.3271C163.018 86.2364 163.233 85.1492 163.697 84.161C164.777 82.3132 167.25 81.9999 169.399 81.8594C172.218 81.7405 176.462 81.8594 178.319 84.4311C180.177 87.0029 179.961 91.8439 180.436 94.8371Z" fill="#F8C0DD"/>
<path d="M189.118 49.3235C189.958 51.676 190.253 54.1883 189.982 56.6714C189.742 62.405 189.143 68.118 188.19 73.7768C187.477 78.0235 186.354 82.5835 182.995 85.2633C182.035 85.9095 181.129 86.6322 180.285 87.4244C179.701 88.0512 179.291 88.8292 178.751 89.5099C176.019 92.9353 170.511 92.9353 166.753 90.6553C162.995 88.3753 160.587 84.4637 158.384 80.66C155.954 76.4674 153.546 72.0803 153.114 67.2502C152.757 63.425 153.654 59.3944 152.196 55.8394C151.116 53.2244 148.881 51.1281 148.384 48.351C148.192 46.48 148.421 44.5896 149.053 42.8185C149.928 39.674 151.267 36.0433 154.453 35.1897C156.775 34.5629 159.172 35.7516 161.58 35.8272C164.647 35.9353 167.768 34.2172 170.684 35.1897C174.431 36.4431 176.084 40.7654 179.82 42.1702C183.557 43.5749 187.38 45.347 189.118 49.3235Z" fill="#06092B"/>
<path d="M201.516 104.703C190.565 95.6153 174.766 95.8422 160.673 97.7656C154.852 98.5544 148.924 99.6026 143.805 102.499C135.23 107.361 130.155 116.762 127.487 126.271C126.072 131.317 125.327 137.077 128.157 141.507C131.126 146.089 137.044 147.666 142.466 148.271C143.296 148.29 144.107 148.525 144.82 148.952C145.567 149.645 146.035 150.586 146.137 151.6C147.649 159.488 144.582 168.348 148.632 175.275C152.552 181.964 161.31 183.725 169.032 184.319C179.021 185.086 189.853 184.806 197.963 178.916C199.308 178.012 200.452 176.838 201.321 175.469C202.66 173.179 202.736 170.391 202.768 167.743C202.855 161.973 200.749 150.368 203.557 145.278C205.911 141.042 212.617 141.021 214.971 136.18C219.432 126.973 208.222 110.257 201.516 104.703Z" fill="white"/>
<path d="M162.031 181.044L162.105 194.608C162.158 195.13 162.069 195.658 161.849 196.123C161.494 196.613 160.98 196.926 160.418 196.994C157.13 197.853 153.692 197.364 150.318 197.376C146.944 197.388 143.303 198.056 140.879 200.692C144.563 203.734 149.314 204.569 153.873 205.165C160.621 206.064 167.384 206.661 174.16 206.955C178.553 207.317 182.969 207.06 187.304 206.191C191.115 205.336 194.688 203.475 197.725 200.764C194.746 197.185 189.813 197.256 185.457 197.256C181.218 197.255 176.983 196.984 172.772 196.445C172.296 196.452 171.824 196.35 171.385 196.145C170.946 195.94 170.55 195.636 170.22 195.252C169.865 194.545 169.723 193.73 169.814 192.926C169.896 189.914 170.235 186.918 170.829 183.979C170.955 183.009 171.305 182.093 171.843 181.319C172.794 180.411 173.989 179.882 175.239 179.816C180.182 178.895 185.03 177.416 189.706 175.402C191.632 174.689 193.424 173.585 194.992 172.145C199.198 167.875 199.017 160.514 198.045 154.251C190.303 159.273 181.561 162.053 172.612 162.339C166.494 162.53 153.222 159.596 148.919 166.181C146.784 169.509 149.058 172.587 151.418 174.889C152.443 175.867 162.031 180.913 162.031 181.044Z" fill="url(#paint0_linear_494_1431)"/>
<path d="M184.053 122.403H158.351C148.337 122.403 140.219 130.525 140.219 140.545V148.207C140.219 158.227 148.337 166.349 158.351 166.349H184.053C194.067 166.349 202.185 158.227 202.185 148.207V140.545C202.185 130.525 194.067 122.403 184.053 122.403Z" fill="#050720"/>
<path d="M184.053 122.403H158.351C148.337 122.403 140.219 130.525 140.219 140.545V148.207C140.219 158.227 148.337 166.349 158.351 166.349H184.053C194.067 166.349 202.185 158.227 202.185 148.207V140.545C202.185 130.525 194.067 122.403 184.053 122.403Z" fill="url(#paint1_linear_494_1431)"/>
<path d="M184.053 126.444H158.351C148.337 126.444 140.219 134.567 140.219 144.587V152.248C140.219 162.268 148.337 170.391 158.351 170.391H184.053C194.067 170.391 202.185 162.268 202.185 152.248V144.587C202.185 134.567 194.067 126.444 184.053 126.444Z" fill="#191C3E"/>
<path d="M180.738 150.703C178.884 151.526 176.931 152.107 174.928 152.432C169.529 153.426 163.222 153.21 159.334 149.287C158.725 148.691 158.231 147.988 157.876 147.212C156.796 144.587 158.211 141.421 160.533 139.756C162.855 138.092 165.803 137.649 168.643 137.509C172.12 137.336 178.73 136.742 181.764 139.087C185.393 141.896 184.831 148.779 180.738 150.703Z" fill="url(#paint2_linear_494_1431)"/>
<path d="M170.166 213.808H170.177C172.509 213.808 174.399 211.916 174.399 209.583V148.185C174.399 145.852 172.509 143.96 170.177 143.96H170.166C167.834 143.96 165.943 145.852 165.943 148.185V209.583C165.943 211.916 167.834 213.808 170.166 213.808Z" fill="white"/>
<path d="M196.181 262.477C198.341 264.26 198.881 267.35 199.831 270.041C201.149 273.715 203.589 277.054 203.913 280.944C204.055 282.097 203.864 283.267 203.363 284.315C202.88 285.126 202.193 285.796 201.37 286.259C200.548 286.721 199.619 286.96 198.676 286.952C196.786 286.913 194.943 286.352 193.352 285.331C190.537 283.654 188.213 281.265 186.613 278.404C185.797 277.005 185.275 275.453 185.08 273.844C184.637 268.971 189.691 257.29 196.181 262.477Z" fill="#525369"/>
<path d="M200.209 283.094C200.361 283.378 200.441 283.696 200.441 284.018C200.441 284.34 200.361 284.658 200.209 284.942C199.96 285.209 199.63 285.388 199.269 285.45C197.782 285.738 196.24 285.456 194.95 284.661C193.676 283.88 192.508 282.939 191.472 281.862C189.869 280.455 188.451 278.85 187.25 277.086C186.047 275.294 185.558 273.116 185.878 270.981C187.023 265.124 192.185 270.376 194.086 272.537C196.799 275.62 198.879 279.207 200.209 283.094Z" fill="#06092B"/>
<path d="M153.902 262.596C151.742 264.379 151.202 267.469 150.252 270.16C148.935 273.834 146.494 277.183 146.17 281.063C146.029 282.22 146.22 283.393 146.721 284.445C147.205 285.254 147.892 285.922 148.715 286.382C149.537 286.843 150.465 287.08 151.408 287.071C153.298 287.037 155.142 286.476 156.732 285.45C159.549 283.776 161.873 281.386 163.47 278.523C164.288 277.125 164.81 275.572 165.004 273.963C165.436 269.09 160.382 257.366 153.902 262.596Z" fill="#525369"/>
<path d="M149.323 283.515C149.174 283.8 149.096 284.118 149.096 284.439C149.096 284.761 149.174 285.078 149.323 285.363C149.577 285.631 149.91 285.809 150.274 285.871C151.761 286.147 153.299 285.867 154.593 285.082C155.86 284.297 157.025 283.357 158.06 282.284C159.669 280.875 161.092 279.266 162.293 277.497C163.493 275.707 163.983 273.534 163.665 271.402C162.509 265.535 157.358 270.786 155.446 272.958C152.736 276.044 150.656 279.63 149.323 283.515Z" fill="#06092B"/>
<path d="M177.045 236.759C175.305 237.586 173.384 237.958 171.462 237.84C169.334 237.962 167.199 237.806 165.112 237.375C164.408 237.236 163.748 236.928 163.189 236.478C162.723 236.051 162.355 235.527 162.11 234.944C160.349 231.054 158.362 222.993 161.094 219.719C164.215 215.958 176.602 215.299 180.533 219.243C184.345 222.939 181.58 234.09 177.045 236.759Z" fill="#3CD3C1"/>
<path d="M177.045 236.759C175.305 237.586 173.384 237.958 171.462 237.84C169.334 237.962 167.199 237.806 165.112 237.375C164.408 237.236 163.748 236.928 163.189 236.478C162.723 236.051 162.355 235.527 162.11 234.944C160.349 231.054 158.362 222.993 161.094 219.719C164.215 215.958 176.602 215.299 180.533 219.243C184.345 222.939 181.58 234.09 177.045 236.759Z" fill="#393A55"/>
<path d="M168.449 273.315H174.086V236.921H168.449V273.315Z" fill="white"/>
<path d="M193.557 276.341C194.81 277.367 196.03 278.653 197.639 278.848C198.805 278.977 199.972 278.48 201.16 278.48C202.723 278.59 204.197 279.253 205.317 280.35C206.376 281.188 207.17 282.313 207.607 283.591C208.481 286.574 205.825 289.837 202.725 290.139C199.626 290.442 196.646 288.324 195.285 285.536C194.992 284.772 194.607 284.047 194.14 283.375C193.692 282.893 193.171 282.485 192.596 282.165C188.01 279.319 182.952 277.317 177.661 276.254C176.743 276.07 175.619 275.984 175.036 276.708C174.754 277.122 174.6 277.611 174.594 278.113C174.354 280.265 174.257 282.431 174.302 284.596C174.274 285.012 174.352 285.429 174.529 285.806C174.809 286.195 175.152 286.535 175.544 286.811C176.168 287.475 176.56 288.324 176.661 289.23C176.763 290.136 176.568 291.05 176.105 291.836C175.128 293.385 173.631 294.535 171.883 295.078C169.81 295.845 167.196 295.975 165.652 294.386C165.107 293.772 164.742 293.019 164.599 292.21C164.456 291.401 164.54 290.568 164.842 289.805C165.464 288.279 166.614 287.029 168.082 286.282C168.592 286.088 169.035 285.75 169.356 285.309C169.535 284.902 169.602 284.454 169.55 284.013L169.399 279.193C169.445 278.826 169.402 278.452 169.274 278.105C169.147 277.757 168.938 277.445 168.665 277.194C168.233 276.97 167.739 276.897 167.261 276.989C159.324 277.602 151.722 280.453 145.339 285.212C146.505 286.12 146.3 288.086 145.252 289.124C144.098 290.075 142.616 290.534 141.127 290.399C139.49 290.416 137.885 289.946 136.516 289.048C135.83 288.6 135.271 287.983 134.893 287.256C134.515 286.529 134.33 285.718 134.356 284.899C134.466 284.069 134.789 283.282 135.295 282.616C135.8 281.949 136.47 281.425 137.239 281.095C138.784 280.448 140.484 280.264 142.131 280.566C142.979 280.746 143.847 280.815 144.712 280.771C145.683 280.569 146.607 280.184 147.434 279.636C154.913 275.411 163.208 272.832 171.764 272.072C178.935 271.435 187.758 271.586 193.557 276.341Z" fill="white"/>
<path d="M137.552 223.414H200.587C208.072 223.414 214.14 217.343 214.14 209.853V208.999C214.14 201.51 208.072 195.438 200.587 195.438H137.552C130.067 195.438 123.999 201.51 123.999 208.999V209.853C123.999 217.343 130.067 223.414 137.552 223.414Z" fill="#3CD3C1"/>
<path d="M137.552 223.414H200.587C208.072 223.414 214.14 217.343 214.14 209.853V208.999C214.14 201.51 208.072 195.438 200.587 195.438H137.552C130.067 195.438 123.999 201.51 123.999 208.999V209.853C123.999 217.343 130.067 223.414 137.552 223.414Z" fill="#525369"/>
<rect x="0.996704" y="94.8826" width="92.7127" height="43.9165" rx="4" fill="#FAFAFA"/>
<path opacity="0.7" d="M33.6626 104.642H10.845C10.3466 104.642 9.94269 105.046 9.94269 105.544C9.94269 106.043 10.3466 106.447 10.845 106.447H33.6626C34.1609 106.447 34.5649 106.043 34.5649 105.544C34.5649 105.046 34.1609 104.642 33.6626 104.642Z" fill="#3CD3C1"/>
<path opacity="0.7" d="M24.1269 108.143H10.7909C10.3224 108.143 9.94263 108.523 9.94263 108.991C9.94263 109.46 10.3224 109.84 10.7909 109.84H24.1269C24.5954 109.84 24.9751 109.46 24.9751 108.991C24.9751 108.523 24.5954 108.143 24.1269 108.143Z" fill="#3CD3C1"/>
<path opacity="0.7" d="M77.4696 108.143H31.8872C31.4157 108.143 31.0335 108.525 31.0335 108.997C31.0335 109.468 31.4157 109.85 31.8872 109.85H77.4696C77.9411 109.85 78.3232 109.468 78.3232 108.997C78.3232 108.525 77.9411 108.143 77.4696 108.143Z" fill="#3CD3C1"/>
<path opacity="0.7" d="M37.534 111.644H18.6581C18.1628 111.644 17.7612 112.046 17.7612 112.541C17.7612 113.036 18.1628 113.438 18.6581 113.438H37.534C38.0294 113.438 38.4309 113.036 38.4309 112.541C38.4309 112.046 38.0294 111.644 37.534 111.644Z" fill="#3CD3C1"/>
<path opacity="0.7" d="M48.1119 115.145H25.2943C24.7959 115.145 24.392 115.549 24.392 116.047C24.392 116.546 24.7959 116.95 25.2943 116.95H48.1119C48.6102 116.95 49.0142 116.546 49.0142 116.047C49.0142 115.549 48.6102 115.145 48.1119 115.145Z" fill="#3CD3C1"/>
<path opacity="0.7" d="M70.2557 115.145H51.6283C51.0733 115.145 50.6234 115.595 50.6234 116.15C50.6234 116.705 51.0733 117.155 51.6283 117.155H70.2557C70.8107 117.155 71.2606 116.705 71.2606 116.15C71.2606 115.595 70.8107 115.145 70.2557 115.145Z" fill="#3CD3C1"/>
<path opacity="0.7" d="M42.5287 118.635H25.2078C24.7393 118.635 24.3596 119.015 24.3596 119.484C24.3596 119.952 24.7393 120.332 25.2078 120.332H42.5287C42.9972 120.332 43.377 119.952 43.377 119.484C43.377 119.015 42.9972 118.635 42.5287 118.635Z" fill="#3CD3C1"/>
<path opacity="0.7" d="M83.4846 118.635H46.1313C45.6121 118.635 45.1912 119.056 45.1912 119.575C45.1912 120.095 45.6121 120.516 46.1313 120.516H83.4846C84.0038 120.516 84.4247 120.095 84.4247 119.575C84.4247 119.056 84.0038 118.635 83.4846 118.635Z" fill="#3CD3C1"/>
<path opacity="0.7" d="M33.6625 123.368H10.8449C10.3466 123.368 9.94263 123.772 9.94263 124.271C9.94263 124.769 10.3466 125.173 10.8449 125.173H33.6625C34.1609 125.173 34.5648 124.769 34.5648 124.271C34.5648 123.772 34.1609 123.368 33.6625 123.368Z" fill="#3CD3C1"/>
<path opacity="0.7" d="M24.1269 126.869H10.7909C10.3224 126.869 9.94263 127.249 9.94263 127.717C9.94263 128.186 10.3224 128.566 10.7909 128.566H24.1269C24.5954 128.566 24.9751 128.186 24.9751 127.717C24.9751 127.249 24.5954 126.869 24.1269 126.869Z" fill="#3CD3C1"/>
<path opacity="0.7" d="M77.4696 126.869H31.8872C31.4157 126.869 31.0335 127.251 31.0335 127.723C31.0335 128.194 31.4157 128.577 31.8872 128.577H77.4696C77.9411 128.577 78.3232 128.194 78.3232 127.723C78.3232 127.251 77.9411 126.869 77.4696 126.869Z" fill="#3CD3C1"/>
<defs>
<linearGradient id="paint0_linear_494_1431" x1="140.879" y1="180.687" x2="198.665" y2="180.687" gradientUnits="userSpaceOnUse">
<stop stop-color="#010101" stop-opacity="0"/>
<stop offset="0.95" stop-color="#525369"/>
</linearGradient>
<linearGradient id="paint1_linear_494_1431" x1="12375.4" y1="10966.3" x2="15931" y2="10966.3" gradientUnits="userSpaceOnUse">
<stop stop-color="#191C3E" stop-opacity="0.33"/>
<stop offset="0.95" stop-color="#010101"/>
</linearGradient>
<linearGradient id="paint2_linear_494_1431" x1="8396.28" y1="3830.49" x2="8386.22" y2="4741.31" gradientUnits="userSpaceOnUse">
<stop stop-color="#010101" stop-opacity="0"/>
<stop offset="0.95" stop-color="#010101"/>
</linearGradient>
</defs>
</svg>
